# ProBuilder 5.2.3
# https://unity3d.com/unity/features/worldbuilding/probuilder
# 24.02.2025 2:42:55

mtllib ./Cube_2.mtl
o Cube_2

g Cube (1)
v 0.9966803 -5.960464E-08 2.005118
v 9.536743E-07 -5.960464E-08 2.005118
v 0.9966803 0.9994143 2.005118
v 9.536743E-07 0.9994143 2.005118
v 9.536743E-07 -5.960464E-08 -2.384186E-07
v 0 0.9994143 2.003055
v 0.9966803 -5.960464E-08 -2.384186E-07
v 0.9966812 0.9994143 2.003055

vt 0.9966803 -5.960464E-08
vt 9.536743E-07 -5.960464E-08
vt 0.9966803 0.9994143
vt 9.536743E-07 0.9994143
vt 2.005118 -5.960464E-08
vt 2.005118 0.9994143
vt 2.003055 0.9994143
vt -0.9966803 -2.39949E-07
vt 0 2.238539
vt -0.9966812 2.238539
vt -2.005118 8.914606E-07
vt -2.003055 0.9994153
vt -2.005118 0.9994152
vt -0.9966803 2.005089
vt -9.536743E-07 2.005089
vt -0.9966812 2.003026
vt 0 2.003026
vt 0.9966803 2.005118

vn 0 0 1
vn -1 0 0
vn -0.9999998 -0.0004636948 0.0002311202
vn -0.9999995 -0.0009273895 0.0004622404
vn 0 0.8948044 -0.4464583
vn 1 -9.542331E-07 0
vn 0.9999999 -4.771165E-07 0.0002311337
vn 0 1 2.889171E-05
vn 0 -1 0

usemtl ProBuilderDefault
f 3/3/1 4/4/1 2/2/1 1/1/1
f 4/6/3 6/7/4 5/2/3 2/5/2
f 6/9/5 8/10/5 7/8/5 5/2/5
f 8/12/7 3/13/7 1/11/7 7/2/6
f 8/16/8 6/17/8 4/15/8 3/14/8
f 1/18/9 2/15/9 5/2/9 7/1/9

