# ProBuilder 5.2.3
# https://unity3d.com/unity/features/worldbuilding/probuilder
# 24.02.2025 2:42:42

mtllib ./Cube_1.mtl
o Cube_1

g Cube
v 0.9966803 -5.960464E-08 2.005118
v 9.536743E-07 -5.960464E-08 2.005118
v 0.9966803 0.9994143 2.005118
v 9.536743E-07 0.9994143 2.005118
v 9.536743E-07 -5.960464E-08 -2.384186E-07
v 0 0.9994143 1.017594
v 0.9966803 -5.960464E-08 -2.384186E-07
v 0.9966812 0.9994143 1.017594

vt 0.9966803 -5.960464E-08
vt 9.536743E-07 -5.960464E-08
vt 0.9966803 0.9994143
vt 9.536743E-07 0.9994143
vt 2.005118 -5.960464E-08
vt 2.005118 0.9994143
vt 1.017594 0.9994143
vt -0.9966803 -2.118653E-07
vt 0 1.426298
vt -0.9966812 1.426298
vt -2.005118 8.914606E-07
vt -1.017594 0.9994153
vt -2.005118 0.9994152
vt -0.9966803 2.005118
vt -9.536743E-07 2.005118
vt -0.9966812 1.017594
vt 0 1.017594
vt 0.9966803 2.005118

vn 0 0 1
vn -1 0 0
vn 0 0.7134511 -0.7007051
vn 1 -9.542331E-07 0
vn 0 1 6.035768E-08
vn 0 -1 0

usemtl ProBuilderDefault
f 3/3/1 4/4/1 2/2/1 1/1/1
f 4/6/2 6/7/2 5/2/2 2/5/2
f 6/9/3 8/10/3 7/8/3 5/2/3
f 8/12/4 3/13/4 1/11/4 7/2/4
f 8/16/5 6/17/5 4/15/5 3/14/5
f 1/18/6 2/15/6 5/2/6 7/1/6

